# xmcd CD database file
#
# Track frame offsets:
#	150
#	18160
#	36800
#	49777
#	73817
#	92325
#	110275
#	127940
#	145125
#	162567
#	178640
#	194487
#	212450
#
# Disc length: 3053 seconds
#
# Revision: 0
# Processed by: cddbd v1.5.1PL0 Copyright (c) Steve Scherf et al.
# Submitted via: CDex 1.51
#
DISCID=ad0beb0d
DTITLE=Angie - 渦
DYEAR=1992
DGENRE=Rock
TTITLE0=猛き風にのせて
TTITLE1=誰だ
TTITLE2=毒々新聞
TTITLE3=不幸の手紙
TTITLE4=涙愚かに
TTITLE5=眺めの良い場所
TTITLE6=欲望
TTITLE7=花畑
TTITLE8=砂のシナリオ
TTITLE9=のるかそるか
TTITLE10=ぐりぐらのラッパ
TTITLE11=しあわせのしずく
TTITLE12=夜中の3時のロマンチック
EXTD=YEAR: 1992
EXTT0=
EXTT1=
EXTT2=
EXTT3=
EXTT4=
EXTT5=
EXTT6=
EXTT7=
EXTT8=
EXTT9=
EXTT10=
EXTT11=
EXTT12=
PLAYORDER=
